<svg width="100%" viewBox="0 0 680 200" xmlns="http://www.w3.org/2000/svg">
  <rect width="680" height="200" fill="#080f1a" rx="6"/>
  <text x="340" y="22" text-anchor="middle" fill="#7aafd4" font-family="monospace" font-size="11" letter-spacing="2" font-weight="500">PROJECT BREAKDOWN</text>
  <line x1="200" y1="28" x2="480" y2="28" stroke="#4a86c4" stroke-width="0.5"/>

  <!-- Total circumference at r=70: ~439.8 -->
  <!-- C: 5/9 = 55.6% = 244.5 -->
  <!-- Python: 3/9 = 33.3% = 146.5 -->
  <!-- Shell/Bash: 1/9 = 11.1% = 48.8 -->
  <circle cx="200" cy="110" r="70" fill="none" stroke="#080f1a" stroke-width="26"/>
  <circle cx="200" cy="110" r="70" fill="none" stroke="#4a86c4" stroke-width="22" stroke-dasharray="242 441" stroke-dashoffset="2" transform="rotate(-90 200 110)"/>
  <circle cx="200" cy="110" r="70" fill="none" stroke="#3a8c5a" stroke-width="22" stroke-dasharray="144 441" stroke-dashoffset="-244" transform="rotate(-90 200 110)"/>
  <circle cx="200" cy="110" r="70" fill="none" stroke="#4a4e58" stroke-width="22" stroke-dasharray="47 441" stroke-dashoffset="-392" transform="rotate(-90 200 110)"/>

  <text x="200" y="104" text-anchor="middle" fill="#e8f0f8" font-family="monospace" font-size="22" font-weight="500">9</text>
  <text x="200" y="122" text-anchor="middle" fill="#4a86c4" font-family="monospace" font-size="11">projects</text>

  <rect x="360" y="58" width="12" height="12" fill="#4a86c4" rx="2"/>
  <text x="380" y="69" fill="#e8f0f8" font-family="monospace" font-size="13">C</text>
  <text x="620" y="69" text-anchor="end" fill="#6a8aaa" font-family="monospace" font-size="12">5 projects</text>

  <rect x="360" y="88" width="12" height="12" fill="#3a8c5a" rx="2"/>
  <text x="380" y="99" fill="#e8f0f8" font-family="monospace" font-size="13">Python</text>
  <text x="620" y="99" text-anchor="end" fill="#6a8aaa" font-family="monospace" font-size="12">3 projects</text>

  <rect x="360" y="118" width="12" height="12" fill="#4a4e58" rx="2"/>
  <text x="380" y="129" fill="#e8f0f8" font-family="monospace" font-size="13">Shell / Bash</text>
  <text x="620" y="129" text-anchor="end" fill="#6a8aaa" font-family="monospace" font-size="12">1 project</text>

  <line x1="360" y1="155" x2="640" y2="155" stroke="#1c2e42" stroke-width="0.5"/>
  <text x="360" y="174" fill="#4a86c4" font-family="monospace" font-size="11">Currently</text>
  <text x="620" y="174" text-anchor="end" fill="#e8f0f8" font-family="monospace" font-size="13">42 Core</text>
</svg>
